<?xml version="1.0" encoding="iso-8859-1"?>
<!-- Uploaded to: SVG Repo, www.svgrepo.com, Generator: SVG Repo Mixer Tools -->
<svg version="1.1" id="Layer_1" xmlns="http://www.w3.org/2000/svg" xmlns:xlink="http://www.w3.org/1999/xlink" 
	 viewBox="0 0 512.001 512.001" xml:space="preserve">
<g>
	<path style="fill:#D4F4F1;" d="M246.39,379.613V264.703c14.267-17.72,22.788-40.113,22.788-64.462
		c0-46.636-31.244-86.1-74.283-99.281V44.063c0-5.896-4.783-10.676-10.685-10.676h-41.669c-5.899,0-10.684,4.78-10.684,10.676
		v56.895c-43.038,13.181-74.283,52.645-74.283,99.281c0,24.352,8.522,46.744,22.79,64.464v114.91
		c-11.945,1.564-21.162,11.608-21.162,23.775v76.78c0,13.251,10.932,23.994,24.417,23.994h159.514
		c13.484,0,24.415-10.743,24.415-23.994v-76.78C267.55,391.221,258.335,381.178,246.39,379.613z"/>
	<path style="fill:#D4F4F1;" d="M443.742,487.082c0,5.895-4.782,10.675-10.685,10.675H328.352c-5.902,0-10.686-4.78-10.686-10.675
		v-17.081c0-5.895,4.783-10.675,10.686-10.675h104.705c5.901,0,10.685,4.78,10.685,10.675L443.742,487.082L443.742,487.082z"/>
</g>
<path style="fill:#FFAB5F;" d="M91.256,482.812c-5.9,0-10.684-4.78-10.684-10.676V409.73c0-4.493,2.815-8.506,7.04-10.036
	c8.447-3.06,14.122-11.13,14.122-20.082v-114.91c0-4.851-1.676-9.603-4.718-13.383c-3.073-3.816-5.806-7.89-8.12-12.106
	c-1.817-3.307-1.751-7.327,0.17-10.573c1.925-3.247,5.421-5.238,9.195-5.238h130.23c3.777,0,7.272,1.991,9.194,5.238
	c1.925,3.246,1.989,7.266,0.173,10.573c-2.317,4.217-5.048,8.291-8.12,12.105c-3.042,3.78-4.718,8.533-4.718,13.383v114.911
	c0,8.951,5.674,17.021,14.118,20.082c4.226,1.531,7.041,5.543,7.041,10.036v62.407c0,5.896-4.785,10.676-10.686,10.676H91.256
	V482.812z"/>
<path style="opacity:0.1;enable-background:new    ;" d="M83.62,504.162c-13.464,0-24.417-10.764-24.417-23.994v-76.78
	c0-11.974,9.098-22.195,21.163-23.775l-0.001-114.91c-14.91-18.517-22.79-40.809-22.79-64.464c0-22.618,7.262-44.122,21.003-62.186
	c13.285-17.467,32.206-30.641,53.279-37.095V44.063c0-5.887,4.793-10.676,10.684-10.676h28.799c1.703,0,3.299,0.83,4.277,2.224
	c0.979,1.394,1.215,3.177,0.636,4.778c-0.423,1.17-0.637,2.407-0.637,3.674v53.104c0,2.228-1.413,4.21-3.518,4.939
	c-19.618,6.782-37.291,19.55-49.763,35.947c-13.74,18.066-21.002,39.568-21.002,62.186c0,23.033,7.5,44.843,21.688,63.072
	c0.715,0.918,1.103,2.047,1.103,3.209v108.871c0,2.318-1.526,4.358-3.75,5.012c-10.252,3.02-17.412,12.472-17.412,22.984v76.78
	c0,5.611,2.022,11.073,5.692,15.38c1.322,1.55,1.622,3.729,0.767,5.579c-0.854,1.851-2.707,3.035-4.744,3.035H83.62z"/>
<path style="fill:#D4F4F1;" d="M323.009,479.609c-8.838,0-16.027-7.183-16.027-16.012V273.578c0-5.895,4.784-10.675,10.685-10.675
	h126.075c5.901,0,10.684,4.78,10.684,10.675v190.018c0,8.83-7.189,16.012-16.026,16.012H323.009V479.609z"/>
<path style="fill:#FFAB5F;" d="M306.982,338.698v124.899c0,8.83,7.189,16.012,16.027,16.012h115.39
	c8.837,0,16.026-7.183,16.026-16.012V338.698H306.982z"/>
<g>
	<path style="fill:#FFFFFF;" d="M366.396,376.453c2.537,2.534,2.503,6.679-0.077,9.256l-12.607,12.599
		c-2.581,2.578-6.729,2.612-9.264,0.077l-12.404-12.391c-2.535-2.534-2.503-6.679,0.077-9.257l12.609-12.6
		c2.578-2.576,6.728-2.608,9.264-0.074L366.396,376.453z"/>
	<path style="fill:#FFFFFF;" d="M424.417,399.937c2.537,2.534,2.503,6.68-0.076,9.256l-12.608,12.599
		c-2.581,2.578-6.729,2.612-9.264,0.076l-12.403-12.39c-2.536-2.534-2.504-6.68,0.076-9.257l12.609-12.6
		c2.578-2.576,6.728-2.609,9.264-0.075L424.417,399.937z"/>
</g>
<path style="opacity:0.1;enable-background:new    ;" d="M339.511,463.596V273.578c0-5.895,4.784-10.675,10.684-10.675h-32.529
	c-5.9,0-10.685,4.78-10.685,10.675v190.018c0,8.83,7.189,16.012,16.027,16.012h32.529
	C346.7,479.609,339.511,472.425,339.511,463.596z"/>
<path style="fill:#FFFFFF;" d="M363.61,432.638c2.854,0,5.168,2.352,5.168,5.252v14.176c0,2.901-2.314,5.252-5.168,5.252h-13.957
	c-2.854,0.001-5.17-2.351-5.17-5.252v-14.177c0-2.898,2.316-5.249,5.17-5.249L363.61,432.638z"/>
<rect x="80.365" y="278.89" style="fill:#7C3673;" width="166.026" height="90.103"/>
<rect x="80.365" y="278.89" style="opacity:0.1;enable-background:new    ;" width="43.954" height="90.103"/>
<path style="fill:#7C3673;" d="M209.767,59.024c0,8.835-7.288,15.996-16.277,15.996h-60.227c-8.988,0-16.277-7.162-16.277-15.996
	v-35.19c0-8.834,7.289-15.996,16.277-15.996h60.227c8.989,0,16.277,7.163,16.277,15.996V59.024z"/>
<g>
	<rect x="181.66" y="7.838" style="fill:#60265C;" width="10.45" height="67.186"/>
	<rect x="158.157" y="7.838" style="fill:#60265C;" width="10.45" height="67.186"/>
	<rect x="134.644" y="7.838" style="fill:#60265C;" width="10.45" height="67.186"/>
</g>
<path d="M277.016,200.239c0-24.346-7.816-47.491-22.601-66.931c-13.095-17.219-31.286-30.551-51.681-37.987V81.035
	c8.723-3.592,14.873-12.104,14.873-22.011v-35.19C217.605,10.692,206.787,0,193.491,0h-60.227
	c-13.297,0-24.114,10.692-24.114,23.834v35.19c0,9.906,6.148,18.418,14.87,22.011v14.288c-20.395,7.435-38.585,20.769-51.68,37.987
	c-14.786,19.441-22.602,42.584-22.602,66.931c0,24.531,7.869,47.695,22.79,67.172v106.089
	c-12.439,4.509-21.162,16.353-21.162,29.887v76.78c0,17.552,14.47,31.832,32.255,31.832h159.514
	c17.785,0,32.253-14.279,32.253-31.832v-76.78c0-13.534-8.722-25.378-21.16-29.887v-106.09
	C269.147,247.934,277.016,224.772,277.016,200.239z M124.825,23.834c0-4.499,3.785-8.159,8.439-8.159h60.227
	c4.654,0,8.439,3.66,8.439,8.159v35.19c0,4.499-3.785,8.159-8.439,8.159h-60.227c-4.654,0-8.439-3.66-8.439-8.159V23.834z
	 M187.058,82.858v4.608h-47.361v-4.608H187.058z M259.712,403.388v76.78c0,8.909-7.437,16.156-16.577,16.156H83.62
	c-9.142,0-16.58-7.247-16.58-16.156v-76.78c0-8.052,6.166-14.933,14.342-16.003c3.902-0.511,6.82-3.836,6.82-7.772v-2.781h5.692
	v2.781c0,5.664-3.597,10.773-8.953,12.712c-7.302,2.646-12.209,9.642-12.209,17.405v62.406c0,10.208,8.309,18.514,18.522,18.514
	h144.241c10.213,0,18.523-8.305,18.523-18.514v-62.407c0-7.765-4.906-14.759-12.209-17.403c-5.354-1.941-8.952-7.05-8.952-12.713
	v-2.781h5.692v2.781c0,3.936,2.918,7.26,6.82,7.772C253.547,388.455,259.712,395.336,259.712,403.388z M236.47,407.064
	c1.12,0.407,1.874,1.477,1.874,2.666v62.407c0,1.564-1.278,2.838-2.848,2.838H91.256c-1.57,0-2.847-1.274-2.847-2.838v-62.406
	c0-1.189,0.753-2.261,1.872-2.667c11.538-4.179,19.29-15.212,19.29-27.451v-2.781h107.613v2.781
	C217.184,391.852,224.934,402.882,236.47,407.064z M88.203,361.157v-74.43h150.349v74.43H88.203z M240.285,259.788
	c-1.121,1.392-1.733,3.127-1.733,4.915v6.349h-5.692v-6.349c0-3.068,1.061-6.075,2.985-8.466c3.355-4.164,6.343-8.622,8.886-13.25
	c3.136-5.711,3.02-12.739-0.299-18.337c-3.317-5.602-9.424-9.082-15.939-9.082h-16.383c-4.33,0-7.838,3.508-7.838,7.838
	c0,4.33,3.508,7.838,7.838,7.838h16.383c1.002,0,1.941,0.534,2.453,1.397c0.507,0.855,0.525,1.93,0.046,2.802
	c-2.101,3.823-4.575,7.512-7.356,10.965c-4.159,5.168-6.45,11.666-6.45,18.297v6.349H109.571v-6.348
	c0-6.631-2.29-13.129-6.452-18.299c-2.786-3.46-5.26-7.148-7.355-10.966c-0.479-0.872-0.461-1.946,0.044-2.8
	c0.511-0.862,1.452-1.397,2.454-1.397h77.27c4.33,0,7.838-3.508,7.838-7.838c0-4.33-3.508-7.838-7.838-7.838h-77.27
	c-6.51,0-12.617,3.478-15.94,9.082c-3.319,5.606-3.431,12.633-0.297,18.336c2.534,4.617,5.524,9.075,8.885,13.249
	c1.926,2.393,2.986,5.401,2.986,8.469v6.348h-5.692v-6.348c0-1.788-0.611-3.523-1.733-4.915
	c-13.776-17.109-21.057-37.701-21.057-59.549c0-20.889,6.709-40.752,19.402-57.441c12.3-16.172,29.821-28.369,49.337-34.346
	c2.572-0.788,4.49-2.821,5.214-5.311h48.019c0.724,2.49,2.642,4.523,5.214,5.311c19.517,5.978,37.038,18.175,49.338,34.345
	c12.693,16.689,19.402,36.552,19.402,57.442C261.34,222.089,254.059,242.68,240.285,259.788z"/>
<path d="M196.395,298.834h-66.039c-4.33,0-7.838,3.508-7.838,7.838c0,4.33,3.508,7.838,7.838,7.838h66.039
	c4.329,0,7.838-3.508,7.838-7.838C204.233,302.342,200.725,298.834,196.395,298.834z"/>
<path d="M181.888,333.061h-37.024c-4.33,0-7.838,3.509-7.838,7.838c0,4.33,3.508,7.838,7.838,7.838h37.024
	c4.33,0,7.838-3.508,7.838-7.838C189.726,336.57,186.217,333.061,181.888,333.061z"/>
<path d="M443.742,255.065h-19.49c-4.33,0-7.838,3.508-7.838,7.838c0,4.33,3.508,7.838,7.838,7.838h19.49
	c1.57,0,2.847,1.273,2.847,2.837v57.282H314.82v-57.282c0-1.564,1.277-2.837,2.847-2.837h68.963c4.33,0,7.838-3.508,7.838-7.838
	c0-4.33-3.508-7.838-7.838-7.838h-68.963c-10.212,0-18.522,8.305-18.522,18.513v190.018c0,8.284,4.25,15.593,10.685,19.87v3.616
	c0,10.208,8.309,18.513,18.523,18.513h104.705c10.212,0,18.522-8.305,18.522-18.513v-3.616c6.433-4.277,10.685-11.585,10.685-19.87
	V273.578C462.263,263.371,453.954,255.065,443.742,255.065z M433.057,489.919H328.352c-1.444,0-2.628-1.082-2.811-2.473h110.325
	C435.685,488.837,434.502,489.919,433.057,489.919z M446.587,463.596c0,4.508-3.673,8.174-8.188,8.174h-115.39
	c-4.515,0-8.189-3.667-8.189-8.174v-117.06h131.767V463.596z"/>
<path d="M338.906,403.929c2.692,2.69,6.28,4.172,10.1,4.172c3.861,0,7.5-1.509,10.245-4.249l12.606-12.598
	c2.745-2.742,4.256-6.38,4.256-10.245c0-3.823-1.484-7.41-4.178-10.101l-12.403-12.392c-2.693-2.69-6.281-4.171-10.102-4.171
	c-3.862,0-7.5,1.508-10.24,4.247l-12.61,12.601c-2.712,2.711-4.222,6.306-4.253,10.125c-0.031,3.867,1.452,7.496,4.177,10.22
	L338.906,403.929z M349.399,370.55l10.501,10.492l-10.861,10.853l-10.503-10.492L349.399,370.55z"/>
<path d="M396.926,427.412c2.692,2.691,6.28,4.173,10.101,4.173c3.862,0,7.5-1.508,10.243-4.248l12.608-12.599
	c2.744-2.742,4.255-6.38,4.255-10.246c-0.001-3.822-1.485-7.41-4.179-10.1L417.553,382c-2.692-2.689-6.281-4.171-10.101-4.171
	c-3.862,0-7.5,1.508-10.241,4.248l-12.609,12.6c-2.713,2.711-4.224,6.307-4.254,10.126c-0.031,3.868,1.453,7.497,4.178,10.22
	L396.926,427.412z M407.42,394.035l10.502,10.493L407.06,415.38l-10.502-10.491L407.42,394.035z"/>
<path d="M363.609,424.8l-13.957,0.002c-7.172,0-13.008,5.871-13.008,13.087v14.177c0,7.218,5.834,13.09,13.006,13.09h13.959
	c7.171,0,13.006-5.872,13.006-13.09V437.89C376.615,430.672,370.781,424.8,363.609,424.8z M360.94,449.481h-8.619v-9.004
	l8.619-0.002V449.481z"/>
<g>
	<path style="fill:#FFFFFF;" d="M411.348,270.596c-4.367,10.541-7.906,14.082-18.447,18.447
		c10.541,4.366,14.081,7.906,18.447,18.446c4.366-10.541,7.906-14.081,18.446-18.446
		C419.253,284.676,415.714,281.137,411.348,270.596z"/>
	<circle style="fill:#FFFFFF;" cx="431.644" cy="314.421" r="9.521"/>
	<path style="fill:#FFFFFF;" d="M208.484,127.9c-6.316,15.246-11.435,20.366-26.681,26.681
		c15.246,6.315,20.365,11.435,26.681,26.681c6.314-15.246,11.434-20.366,26.68-26.681
		C219.918,148.266,214.798,143.147,208.484,127.9z"/>
	<circle style="fill:#FFFFFF;" cx="236.911" cy="189.111" r="11.771"/>
</g>
</svg>